<svg xmlns="http://www.w3.org/2000/svg" viewBox="0 0 32 32" fill="none">
  <rect width="32" height="32" rx="9" fill="url(#g)"/>
  <path d="M16 8C11 8 9 13 9 16.5C9 21 12 24 16 24C20 24 23 21 23 16.5C23 13 21 8 16 8Z" stroke="white" stroke-width="1.25" stroke-linecap="round"/>
  <path d="M16 11V22M13 15C13 15 14 13.5 16 13.5C18 13.5 19 15 19 15M13 19C13 19 14 20.5 16 20.5C18 20.5 19 19 19 19" stroke="white" stroke-width="1.25" stroke-linecap="round"/>
  <defs>
    <linearGradient id="g" x1="6" y1="3" x2="26" y2="29" gradientUnits="userSpaceOnUse">
      <stop stop-color="#1B4332"/>
      <stop offset="1" stop-color="#40916C"/>
    </linearGradient>
  </defs>
</svg>
